<?xml version="1.0" encoding="utf-8" ?><svg xmlns="http://www.w3.org/2000/svg" xmlns:xlink="http://www.w3.org/1999/xlink" width="1024" height="164" viewBox="0 0 1024 164"><path fill="#ECDD72" transform="scale(2.18803 2.18667)" d="M158.289 29.0717C161.938 29.8822 166.758 29.6945 169.676 32.3192C172.069 34.4717 172.918 38.2799 173.072 41.3615C173.284 45.5855 172.237 48.7743 169.441 51.8666C166.45 55.1236 162.289 54.544 158.305 54.949C158.031 50.4415 158.214 45.8086 158.191 41.2841C158.171 37.2788 157.878 33.0418 158.289 29.0717ZM165.798 51.3748C166.402 50.3515 166.987 49.3122 167.724 48.3765C167.47 44.2982 167.338 40.0657 167.622 35.9872C166.554 34.1047 165.572 32.6717 163.407 32.074C163.346 32.0576 163.284 32.0406 163.223 32.0231C163.185 32.0123 163.146 32.0029 163.106 31.9935C162.03 33.9873 162.899 49.0548 162.646 52.713C163.637 52.4092 165.07 52.1345 165.798 51.3748Z"/><path fill="#ECDD72" transform="scale(2.18803 2.18667)" d="M262.738 29.8094C263.345 29.7538 264.134 29.6385 264.71 29.8915C268.037 31.3543 268.263 39.7669 270.659 41.1577C270.745 41.1276 270.825 41.0913 270.903 41.045C272.107 40.3313 274.973 31.698 275.395 29.9949C276.94 30.1962 278.456 30.1268 280.007 30.0658C279.792 38.3464 280 46.657 279.942 54.9418C278.622 55.274 276.824 55.8926 275.512 55.3676C274.461 53.9982 274.993 45.9473 275.011 43.8125C274.958 41.492 274.965 39.2125 275.13 36.8964C273.154 40.4161 272.018 47.8378 269.077 50.2959C268.767 50.5555 268.701 50.5134 268.306 50.4785C266.447 48.1402 265 43.0107 263.97 40.0994C263.62 44.0971 264.536 50.7257 263.954 54.1105C263.85 54.71 263.574 55.1808 263.209 55.658L262.34 55.6267C261.551 54.1097 261.683 36.2699 261.751 33.7548C261.788 32.403 261.69 30.8021 262.738 29.8094Z"/><path fill="#ECDD72" transform="scale(2.18803 2.18667)" d="M118.574 30.0669C121.949 29.8187 123.985 30.0852 126.918 31.8069C127.331 32.8534 127.902 34.0481 127.945 35.1901C128.003 36.7502 127.019 37.6539 126.041 38.7167C126.776 39.1304 127.563 39.5458 128.242 40.0464C129.759 41.1632 130.856 43.1836 131.136 45.0275C131.449 47.0801 130.744 48.9647 129.541 50.6047C129.22 51.1305 128.862 51.6359 128.434 52.0804C126.063 54.5426 121.209 53.7659 118.083 53.833C117.948 47.3384 117.898 40.8423 117.933 34.3464C117.941 33.1837 117.702 30.9262 118.574 30.0669ZM125.156 50.5046C126.547 48.6139 126.534 46.0226 126.192 43.7434C126.046 42.7656 125.719 41.3762 124.885 40.753C124.284 40.303 123.493 40.4086 122.77 40.4847C122.667 43.8838 122.574 47.7006 123.051 51.0611C123.591 51.2436 124.14 51.0712 124.661 50.8256C124.837 50.7424 125.004 50.6262 125.156 50.5046ZM124.006 37.7214C124.616 36.6615 125.022 35.5605 124.678 34.3222C124.482 33.6157 124.02 32.9288 123.369 32.5694C123.263 32.51 123.15 32.4619 123.033 32.4259C122.64 33.9832 122.527 36.0237 122.813 37.606L123.106 37.9557C123.4 37.9241 123.78 37.9332 124.006 37.7214Z"/><path fill="#ECDD72" transform="scale(2.18803 2.18667)" d="M316.907 29.3749C317.161 29.4862 317.414 29.667 317.636 29.832C320.309 31.8236 322.082 38.4058 322.533 41.5763C323.483 38.396 324.803 33.6222 327.145 31.1854C327.669 30.6405 328.074 30.5472 328.811 30.5427C329.014 30.5414 329.73 30.6456 329.873 30.7909C330.847 31.7805 330.044 51.567 330.005 54.2169C329.533 54.2248 329.061 54.2285 328.589 54.2282C328.061 54.2272 327.141 54.2738 326.749 53.872C325.28 52.3651 325.947 44.1699 325.981 41.9485C325.997 41.2576 326.134 40.3252 325.776 39.7129C324.417 40.971 323.849 47.9993 321.618 49.702L321.228 49.6126C319.285 47.1158 318.242 42.9237 317.18 39.9248C316.991 44.3617 317.047 48.8153 317.042 53.256C316.767 53.5613 316.467 53.9251 316.123 54.1553C315.691 54.4447 315.605 54.4689 315.092 54.3691C314.441 53.2121 314.37 33.9019 314.751 31.7571C314.96 30.5787 315.998 30.0158 316.907 29.3749Z"/><path fill="#ECDD72" transform="scale(2.18803 2.18667)" d="M239.145 28.8396C239.4 28.9736 239.557 29.013 239.698 29.272C240.186 30.1692 240.005 52.6392 240.003 55.6478C238.834 55.6164 237.65 55.6922 236.481 55.7287C234.047 51.9095 229.701 43.1839 228.266 38.8867C227.992 42.6894 228.772 50.6044 228.043 53.6235C227.893 54.2463 227.413 54.8569 227.037 55.3682C226.912 55.5353 226.78 55.5315 226.584 55.5847C225.905 54.7948 226.04 32.2787 226.095 29.9549L229.556 30.1037C231.583 33.3817 236.828 43.3453 237.901 46.8397C237.755 43.0229 237.263 34.3654 238.085 30.9231C238.269 30.152 238.707 29.4896 239.145 28.8396Z"/><path fill="#ECDD72" transform="scale(2.18803 2.18667)" d="M153.433 28.8202L154.42 29.1658C154.572 29.3569 154.698 29.5643 154.786 29.7931C155.103 30.6212 155.3 49.7155 155.234 52.0451C155.217 52.6708 155.171 53.4481 154.892 54.019C154.601 54.6147 154.402 54.7026 153.809 54.8972C149.54 53.7765 147.582 42.9161 145.396 41.6902C143.676 43.8147 146.237 50.3428 144.731 53.1229C144.383 53.7649 143.86 53.794 143.219 53.9712C142.204 51.4544 142.231 33.7588 142.558 30.3178L145.622 30.6257C147.387 32.948 149.799 38.199 151.219 41.0766C151.757 42.166 152.117 43.3859 152.841 44.3655C153.546 43.8942 152.916 30.977 153.433 28.8202Z"/><path fill="#ECDD72" transform="scale(2.18803 2.18667)" d="M340.981 41.2601C341.853 38.3147 343.329 31.5094 345.959 29.7056C347.563 29.5784 347.748 32.197 347.809 33.4174C348.143 40.0865 347.412 47.0956 347.812 53.7315L343.879 53.7803C343.947 49.3518 344.181 42.6983 343.752 38.4414C343.069 40.3525 340.58 48.3956 339.27 49.0427C336.384 47.8674 336.615 41.7815 335.265 39.745C335.591 38.3875 334.023 36.878 333.21 36.0171C333.183 34.1723 333.109 32.1858 333.271 30.3573L336.789 30.7923C337.625 34.0594 339.92 37.3599 340.981 41.2601Z"/><path fill="#ECDD72" transform="scale(2.18803 2.18667)" d="M189.844 29.0019L194.738 28.9993C195.211 29.2654 195.742 29.5531 196.127 29.9387C196.737 30.5485 197.075 31.5726 197.077 32.4239C197.078 32.709 196.888 32.8109 196.696 33.0035C195.378 33.1328 193.746 32.1171 192.478 31.737C191.73 31.5129 191.302 31.6622 190.649 32.0173C190.14 32.7381 190.132 33.4304 190.132 34.2743C190.132 36.7055 194.589 39.6326 196.183 41.225C198.577 43.6165 198.019 47.7975 198.017 50.8868C197.092 52.7043 196.248 53.9307 194.384 54.8397C193.057 55.2124 191.16 55.3183 189.78 55.2908C188.853 55.2723 187.478 54.9981 186.836 54.2802C186.437 53.8341 186.374 53.5256 186.415 52.963C186.551 52.8483 186.766 52.6083 186.919 52.5385C187.069 52.4696 191.882 53.0425 192.848 52.9976L193 48.4523C191.421 46.3334 189.323 44.6682 187.793 42.4588C186.282 40.2755 185.034 37.6998 185.537 34.9754C185.968 32.6417 187.915 30.3189 189.844 29.0019Z"/><path fill="#ECDD72" transform="scale(2.18803 2.18667)" d="M212.52 30.0172C214.409 29.9485 223.326 29.6264 223.857 31.2533L223.383 31.7813C221.434 32.425 219.613 32.2575 217.588 32.1844L217.722 36.0259C217.655 36.7173 217.565 37.3029 217.696 37.9924C217.219 41.691 218.196 47.9003 217.544 52.4807C219.545 52.3992 222.628 51.9518 224.16 53.3812C224.257 53.4718 224.349 53.568 224.435 53.6693C224.388 56.0201 214.447 55.8076 212.978 55.2564C212.23 54.0586 212.558 48.3868 212.589 46.6519C212.694 41.2163 212.561 35.4742 212.52 30.0172Z"/><path fill="#D8C85D" transform="scale(2.18803 2.18667)" d="M212.52 30.0172C214.409 29.9485 223.326 29.6264 223.857 31.2533L223.383 31.7813C221.434 32.425 219.613 32.2575 217.588 32.1844L217.49 30.8999C216.574 30.1223 216.374 30.2167 215.098 30.3209C214.526 30.3689 213.954 30.4214 213.383 30.4782C214.54 35.7522 213.757 41.4816 212.589 46.6519C212.694 41.2163 212.561 35.4742 212.52 30.0172Z"/><path fill="#ECDD72" transform="scale(2.18803 2.18667)" d="M109.428 29.8677C110.31 29.9257 111.031 30.0406 111.765 30.5675C113.062 32.6732 114.507 41.7101 115.229 44.7335C115.735 46.8533 116.455 48.9441 116.871 51.0803C117.042 51.9625 117.071 52.9013 117.105 53.7977C115.763 53.6804 114.391 53.773 113.046 53.8107C112.346 52.0713 111.968 50.1808 111.512 48.3654C111.441 48.3084 111.364 48.2534 111.28 48.2159C110.649 47.9329 108.235 48.1116 107.541 48.3782C107.231 48.4974 107.062 48.5976 106.92 48.9021C106.509 49.7846 107.014 50.9636 106.746 51.9082C106.579 52.4957 106.054 53.0256 105.532 53.3124C105.204 53.4928 105.123 53.4166 104.77 53.3122C103.918 51.6595 108.631 32.9587 109.428 29.8677ZM110.753 46.4291L111.132 46.2484C111.223 44.0288 110.262 41.4078 109.622 39.3035L109.115 38.8833C108.976 40.3798 107.523 45.4168 108.113 46.4125C108.994 46.435 109.871 46.453 110.753 46.4291Z"/><path fill="#ECDD72" transform="scale(2.18803 2.18667)" d="M174.745 55.0309C174.101 51.6035 174.118 33.499 174.986 30.387C176.263 28.5293 184.8 29.0552 185.314 31.5442C184.609 32.9004 180.598 32.3171 179.45 32.1445C179.51 33.5039 179.444 34.705 179.379 36.056C179.428 36.403 179.633 37.7071 179.613 37.9766C179.236 38.7587 179.402 51.9546 179.864 52.6019C181.454 52.94 184.828 52.9797 186.59 53.0448C185.963 53.6489 184.996 54.412 184.307 54.9885L174.745 55.0309Z"/><path fill="#ECDD72" transform="scale(2.18803 2.18667)" d="M205.647 47.6946C202.003 44.7349 198.622 41.7459 198.107 36.6212C197.936 35.0344 198.418 33.4466 199.441 32.2216C201.66 29.5157 208.479 27.8565 209.39 31.5163C209.291 32.2562 209.263 32.4073 208.757 32.9504C207.565 33.368 205.631 31.9982 204.332 31.5467C203.612 32.191 202.509 33.1231 201.885 33.8086C205.666 39.5683 212.596 42.1722 210.861 50.2484C210.847 50.3091 210.831 50.3692 210.812 50.4284L209.944 52.1904C207.987 52.1936 206.688 51.4806 206.26 49.522L205.647 47.6946Z"/><path fill="#FBF281" transform="scale(2.18803 2.18667)" d="M205.647 47.6946C206.761 45.8281 208.958 47.2876 210.455 48.1126L210.62 47.4904C210.719 48.4671 210.783 49.4471 210.812 50.4284L209.944 52.1904C207.987 52.1936 206.688 51.4806 206.26 49.522L205.647 47.6946Z"/><path fill="#ECDD72" transform="scale(2.18803 2.18667)" d="M308.695 29.5224C309.912 29.4967 310.983 29.6764 312.167 29.9469C312.614 33.9661 312.448 38.1259 312.427 42.1636C312.406 46.1341 312.497 50.1793 312.184 54.1382C311.827 54.6735 311.671 54.6128 311.062 54.7497C310.377 54.7666 309.684 54.7889 308.999 54.7576C308.308 54.726 307.813 54.5779 307.337 54.0597C306.25 49.5333 307.075 39.7975 307.279 34.7741C307.328 33.58 307.157 32.2885 307.308 31.1106C307.391 30.4627 308.207 29.9001 308.695 29.5224Z"/><path fill="#ECDD72" transform="scale(2.18803 2.18667)" d="M253.13 30.0264L258.347 29.9792C257.998 35.7817 258.147 41.7157 258.199 47.5301C258.221 50.0775 258.601 53.0468 258.134 55.5314L253.26 55.749C253.048 51.0618 253.236 46.2964 253.218 41.6003C253.203 37.7492 252.953 33.8724 253.13 30.0264Z"/><path fill="#ECDD72" transform="scale(2.18803 2.18667)" d="M132.22 29.6956C134.919 29.9611 140.193 28.9035 141.123 31.7655C140.617 33.3732 137.857 32.6246 136.424 32.4497C136.521 33.7502 136.48 34.8227 136.437 36.1152L136.483 37.9905C136.342 41.5326 136.54 45.3393 136.466 48.868C136.372 53.3231 139.345 50.4498 141.161 52.1871C141.505 53.1038 141.477 52.7602 141.31 53.7148C141.181 53.8285 141.029 53.9626 140.854 54.117C138.509 54.1158 134.276 54.0424 132.152 54.0116C132.578 46.8102 132.249 37.1482 132.22 29.6956Z"/><path fill="#ECDD72" transform="scale(2.18803 2.18667)" d="M350.002 30.9218C351.805 31.0099 357.759 30.7349 358.958 31.437L359.068 32.1543L358.701 32.6433C357.745 33.0493 356.029 32.9141 354.932 32.8958C353.938 33.5261 354.23 34.7696 354.272 35.9141C355.882 36.0226 357.101 35.9005 358.264 37.0388L358.312 37.5545C357.473 38.2786 355.587 38.0974 354.552 37.8848C354.27 38.4736 354.238 49.8351 354.246 51.4481C355.607 51.5559 358.661 51.5037 358.972 53.0668C357.823 53.7157 351.318 53.8884 350.132 53.2174C349.516 51.6707 350.002 33.9887 350.002 30.9218Z"/><path fill="#E0CA56" transform="scale(2.18803 2.18667)" d="M354.552 37.8848C354.359 37.392 354.173 36.896 353.997 36.397C353.633 35.3568 352.961 33.0368 354.306 32.5724L354.932 32.8958C353.938 33.5261 354.23 34.7696 354.272 35.9141C355.882 36.0226 357.101 35.9005 358.264 37.0388L358.312 37.5545C357.473 38.2786 355.587 38.0974 354.552 37.8848Z"/><path fill="#ECDD72" transform="scale(2.18803 2.18667)" d="M300.214 29.917C301.43 30.1053 302.678 30.2291 303.903 30.3637L304.382 30.2246C304.409 30.2562 304.743 30.6438 304.743 30.6438C304.899 37.1352 304.622 43.6479 304.66 50.1446C304.665 50.9676 305 53.6999 304.78 54.2412C303.798 54.996 301.45 54.8106 300.163 54.7923C300.179 52.0328 300.083 47.5219 300.278 44.9033C300.186 43.0283 300.238 40.6589 300.225 38.7453C298.521 38.9672 296.688 38.9261 294.962 38.9298C294.994 38.2962 295.047 37.7178 295.112 37.0868L300.221 37.0399L300.214 29.917Z"/><path fill="#D8C85D" transform="scale(2.18803 2.18667)" d="M300.214 29.917C301.43 30.1053 302.678 30.2291 303.903 30.3637C302.791 30.5878 301.312 30.5363 300.609 30.9704C300.286 33.7854 300.987 43.086 300.278 44.9033C300.186 43.0283 300.238 40.6589 300.225 38.7453C298.521 38.9672 296.688 38.9261 294.962 38.9298C294.994 38.2962 295.047 37.7178 295.112 37.0868L300.221 37.0399L300.214 29.917Z"/><path fill="#ECDD72" transform="scale(2.18803 2.18667)" d="M290.42 30.0771C292.247 30.1772 293.176 30.1966 295.014 30.0541C295.006 32.2993 294.939 34.8788 295.112 37.0868C295.047 37.7178 294.994 38.2962 294.962 38.9298C295.096 43.922 295.126 50.1025 294.938 55.0525C293.529 55.0834 291.735 54.8867 290.302 54.7694C290.364 49.8662 290.419 44.9596 290.43 40.0559C290.437 36.7416 290.149 33.3728 290.42 30.0771Z"/><path fill="#ECDD72" transform="scale(2.18803 2.18667)" d="M362.305 30.283L362.87 30.1899C365.216 31.9758 362.678 47.0431 363.794 50.5997C364.621 51.3669 366.387 50.8485 367.459 51.2463C367.939 51.4246 368.026 51.4724 368.237 51.9369C368.145 52.126 368.041 52.306 367.906 52.468C367.381 53.0963 366.496 53.1083 365.742 53.1735C364.586 53.2368 363.45 53.6237 362.291 53.7435C361.492 53.8262 360.985 53.7088 360.368 53.2057C359.569 49.5455 359.934 35.5392 360.234 31.2866L362.305 30.283Z"/><path fill="#D8C85D" transform="scale(2.18803 2.18667)" d="M333.21 36.0171C334.023 36.878 335.591 38.3875 335.265 39.745C334.227 42.0209 335.929 53.6801 333.706 54.1645C332.573 53.0371 333.141 38.5734 333.21 36.0171Z"/><path fill="#ECDD72" transform="scale(2.18803 2.18667)" d="M206.26 49.522C206.688 51.4806 207.987 52.1936 209.944 52.1904C207.726 54.6011 201.777 56.3255 198.82 55.2071C198.31 54.7258 198.37 54.925 198.34 54.2993C199.697 53.4884 199.518 53.5222 199.677 52.0802C200.417 51.7165 206.231 56.2267 206.26 49.522Z"/><path fill="#E0CA56" transform="scale(2.18803 2.18667)" d="M377.448 38.5505C378.294 38.6648 379.399 39.198 379.988 39.8387C380.322 40.2014 380.476 40.6861 380.458 41.175C380.42 42.1776 379.642 42.7522 378.955 43.3745C378.747 43.4085 378.538 43.4336 378.328 43.4498C377.778 43.4885 377.249 43.3656 376.83 42.9894C376.396 42.5986 376.2 42.0802 376.179 41.504C376.131 40.238 376.632 39.4321 377.448 38.5505Z"/><path fill="#E0CA56" transform="scale(2.18803 2.18667)" d="M93.6287 38.6962L93.6838 38.6934C94.3484 38.6607 95.0114 38.8077 95.5122 39.2724C95.9058 39.6376 96.123 40.0947 96.1431 40.6321C96.195 42.0206 95.5116 42.9155 94.6145 43.8774C94.5535 43.8723 94.5556 43.874 94.5026 43.8648C94.4813 43.8611 94.4601 43.8565 94.4388 43.8528C93.9458 43.7664 93.604 43.6144 93.2286 43.2841C92.6401 42.7662 92.2985 42.3043 92.2572 41.4925C92.1916 40.2036 92.8229 39.5888 93.6287 38.6962Z"/><path fill="#E0CA56" transform="scale(2.18803 2.18667)" d="M217.722 36.0259C219.351 36.0461 222.168 35.8486 223.375 36.9263L223.257 37.3474C221.474 38.2347 219.699 38.0097 217.696 37.9924C217.565 37.3029 217.655 36.7173 217.722 36.0259Z"/><path fill="#ECDD72" transform="scale(2.18803 2.18667)" d="M179.379 36.056C181.191 35.9902 183.121 35.6469 184.497 36.8102L184.522 37.2862C183.724 38.0722 183.06 38.0417 182.029 38.0332C181.223 38.0239 180.418 38.005 179.613 37.9766C179.633 37.7071 179.428 36.403 179.379 36.056Z"/><path fill="#D8C85D" transform="scale(2.18803 2.18667)" d="M136.437 36.1152C137.564 36.1063 139.174 35.9339 139.97 36.7054C140.032 36.7653 140.091 36.8277 140.147 36.8925C139.95 38.3245 137.615 38.0165 136.483 37.9905L136.437 36.1152Z"/><path fill="#E0CA56" transform="scale(2.18803 2.18667)" d="M213.142 14.9627C214.999 12.78 219.127 9.50404 222.163 10.2142C223.059 10.5114 223.641 10.5359 224.179 11.1751C223.918 11.401 223.865 11.4577 223.528 11.5024L223.729 11.899C217.82 12.2435 214.112 14.7338 212.389 20.505C214.605 20.5193 229.68 20.7154 230.385 20.3006L230.497 20.2949C231.449 20.9453 231.606 20.7403 232.959 20.5585C233.588 21.171 233.354 20.9936 234.392 21.1376C235.468 20.7473 236.957 19.8075 237.769 19.7417C239.511 21.0435 239.231 21.109 241.313 20.6277C240.697 20.637 240.206 20.7058 239.7 20.3563C239.769 19.8864 239.832 19.9579 240.253 19.5924C242.293 19.9376 243.298 18.1347 245.069 17.1586C246.319 16.4697 247.366 15.8699 248.667 15.2613C250.206 14.614 252.799 13.5675 254.442 14.2196C254.846 15.6405 252.712 15.6839 252.945 17.0408C253.448 18.0034 253.324 18.7378 253.04 19.7834C253.285 20.172 253.39 20.4387 253.971 20.4745C255.659 20.5786 260.949 20.7089 262.355 20.374L262.923 20.382C263.851 20.8818 275.13 20.8303 277.2 20.8646L335.544 21.936C341.659 22.0424 368.044 22.0612 372.404 23.5243C371.132 24.822 368.363 24.0115 366.391 24.2898C353.832 24.3241 340.778 23.833 328.204 23.5448L279.52 22.7457C238.215 22.2904 196.905 22.4853 155.606 23.3306L118.753 24.0782C113.106 24.1715 106.729 24.0846 101.103 24.5656C99.5705 24.6967 96.7282 27.3892 95.5499 28.5695C95.3798 28.7424 95.2166 28.9219 95.0606 29.1076C94.986 28.5448 95.1367 27.7602 95.2203 27.1841L94.7468 26.7324C95.4314 25.7344 98.6486 23.3539 99.9721 23.1315C103.895 22.4722 107.984 22.4288 111.958 22.3103C119.545 22.1098 127.133 21.9783 134.722 21.9157L172.663 21.0419C185.204 20.8627 198.142 21.0009 210.631 20.5309C211.146 19.2303 211.787 17.9234 212.385 16.6546C195.638 17.656 177.345 17.1722 160.424 17.7188L128.201 18.5829C125.841 18.6308 115.949 19.5588 114.8 18.1158C115.763 16.4389 125.23 16.9985 127.251 16.8684C138.478 16.1458 149.687 16.1602 160.912 15.8931L197.424 15.0236C202.606 14.9424 208.096 15.1088 213.142 14.9627Z"/><path fill="#ECDD72" transform="scale(2.18803 2.18667)" d="M240.253 19.5924C242.293 19.9376 243.298 18.1347 245.069 17.1586C246.319 16.4697 247.366 15.8699 248.667 15.2613C248.662 15.97 248.466 16.7497 249.04 17.2092C247.719 18.0265 245.419 19.5746 244.034 19.9446L243.948 20.3217C245.076 20.979 249.914 20.0903 250.418 20.5621C249.205 21.4275 243.078 21.5278 241.547 20.325C241.399 20.457 241.338 20.4627 241.313 20.6277C240.697 20.637 240.206 20.7058 239.7 20.3563C239.769 19.8864 239.832 19.9579 240.253 19.5924Z"/><path fill="#D8C85D" transform="scale(2.18803 2.18667)" d="M248.667 15.2613C250.206 14.614 252.799 13.5675 254.442 14.2196C254.846 15.6405 252.712 15.6839 252.945 17.0408C251.543 17.1418 250.328 16.4842 249.439 18.1726L249.04 17.2092C248.466 16.7497 248.662 15.97 248.667 15.2613Z"/><path fill="#FBF281" transform="scale(2.18803 2.18667)" d="M249.439 18.1726C250.328 16.4842 251.543 17.1418 252.945 17.0408C253.448 18.0034 253.324 18.7378 253.04 19.7834C252.691 19.6707 250.972 19.5965 250.515 19.5698C249.696 19.0124 249.906 19.1247 249.439 18.1726Z"/><path fill="#ECDD72" transform="scale(2.18803 2.18667)" d="M63.2479 30.1638C59.6317 29.9771 58.5771 29.8359 56.9583 26.1419C56.7021 25.5575 56.7727 25.5374 56.8847 24.9534C58.3059 24.4596 65.0355 23.8488 67.719 23.8291C76.4097 23.7653 85.9717 23.6605 94.7387 23.5496C94.8655 23.6676 94.9732 23.7677 95.0617 23.8499C95.1452 24.7959 94.6269 25.8165 94.2649 26.7164L94.7468 26.7324L95.2203 27.1841C95.1367 27.7602 94.986 28.5448 95.0606 29.1076C90.9868 33.7959 90.3218 39.9687 91.3661 45.9064C90.6449 46.731 90.9665 46.5431 89.9969 46.8852C89.8284 45.5505 90.0645 43.9507 89.2451 43.0348L88.5837 43.1174C88.6683 41.9278 88.5797 40.3788 88.5426 39.1588C89.034 38.5336 89.2435 37.6782 89.4835 36.9138C89.6882 36.6876 91.0265 32.6886 91.024 32.1911L90.4659 31.9558C90.4612 31.7243 90.3141 31.2361 90.2488 30.9909C91.3233 31.1297 90.9473 31.2042 91.8853 30.7543C92.1378 29.9992 92.1401 30.2762 91.8961 29.5317C89.5841 30.2356 67.0051 30.07 63.2479 30.1638Z"/><path fill="#ECDD72" transform="scale(2.18803 2.18667)" d="M376.475 23.9902C385.863 23.8965 395.251 24.0192 404.633 24.3582C406.553 24.4143 413.285 24.4637 414.692 24.7363C415.946 26.41 413.192 28.7389 412.012 29.7225C410.705 29.9511 409.74 30.1027 408.419 30.2002C405.786 29.9641 402.435 30.1247 399.739 30.0917C393.43 30.0145 387.183 30.0586 380.877 29.7C379.101 27.658 378.001 26.2337 376.475 23.9902Z"/><path fill="#E0CA56" transform="scale(2.18803 2.18667)" d="M262.268 66.2233C263.856 67.1166 274.663 66.3829 277.216 66.3272L328.315 64.9081C335.619 64.6629 342.904 63.9947 350.218 63.9853C351.86 63.9832 356.212 63.6594 357.488 64.6843C357.431 64.8007 357.376 65.0002 357.254 65.0421C353.744 66.2544 335.072 66.3624 329.889 66.5608C313.138 67.327 296.378 67.9003 279.614 68.2805C273.38 68.3945 267.096 68.6823 260.865 68.5077C260.746 68.0559 260.76 67.2052 260.927 66.754C261.102 66.2837 261.28 66.1863 261.713 65.9839L262.268 66.2233Z"/><path fill="#E0CA56" transform="scale(2.18803 2.18667)" d="M265.762 15.0528C290.575 14.8604 315.955 16.1485 340.782 16.8347C344.448 16.936 354.945 16.6109 357.529 17.897L357.746 18.2933C357.2 18.9961 354.745 19.0849 353.895 19.0452C345.383 18.6483 336.878 18.4712 328.363 18.238C307.41 17.6356 286.452 17.2104 265.491 16.9623C264.283 15.8856 264.183 16.9959 263.007 16.0424L262.976 15.5394L263.411 15.3107L264.535 15.8003C265.378 15.6682 265.093 15.781 265.762 15.0528Z"/><path fill="#E0CA56" transform="scale(2.18803 2.18667)" d="M205.251 68.4695C205.192 68.4761 205.133 68.4817 205.074 68.4863C201.327 68.7755 197.337 68.4649 193.575 68.3807L169.587 67.6673C157.849 67.3751 146.115 66.951 134.387 66.3951C129.147 66.1858 123.756 66.2726 118.544 65.8034C117.613 65.7196 116.365 65.5943 115.632 64.9606L115.688 64.5953C116.863 63.9621 118.434 63.9697 119.735 63.9823C126.288 64.0457 132.848 64.5952 139.392 64.891C143.181 65.0622 146.984 65.0028 150.777 65.1372C157.294 65.368 163.81 65.7662 170.326 65.969C178.639 66.2278 187.005 66.2845 195.323 66.417C199.392 66.4818 203.518 66.4063 207.575 66.6995L205.663 66.9216C206.683 67.1493 207.736 67.4073 208.781 67.4792C209.717 67.5437 211.113 67.1408 211.928 67.5549C211.305 68.1259 210.54 68.114 209.744 68.0799C208.602 68.0309 206.214 67.6006 205.341 68.3847C205.31 68.4121 205.28 68.4406 205.251 68.4695Z"/><path fill="#ECDD72" transform="scale(2.18803 2.18667)" d="M63.3306 31.1114C65.9292 31.9141 86.4773 31.1897 90.2488 30.9909C90.3141 31.2361 90.4612 31.7243 90.4659 31.9558C89.4113 33.4231 89.8142 34.8914 89.1806 35.8862C82.5838 36.526 73.8155 35.7076 66.38 36.3223C64.825 35.2076 62.757 33.2366 63.3306 31.1114Z"/><defs><linearGradient id="gradient_0" gradientUnits="userSpaceOnUse" x1="394.55933" y1="29.403307" x2="396.14072" y2="37.361439"><stop offset="0" stop-color="#FFFF8D"/><stop offset="1" stop-color="#ECDA60"/></linearGradient></defs><path fill="url(#gradient_0)" transform="scale(2.18803 2.18667)" d="M381.756 31.2682C385.568 31.1418 405.042 32.0804 407.014 31.3733C407.046 31.3816 407.078 31.3903 407.109 31.3995C407.886 31.624 408.34 31.7542 408.686 32.3795C408.384 33.0817 406.31 36.0477 405.284 36.1342C398.476 36.7026 391.357 35.5074 384.503 36.3276C382.801 36.5313 382.331 32.8407 381.756 31.2682Z"/><path fill="#E0CA56" fill-opacity="0.98039216" transform="scale(2.18803 2.18667)" d="M106.273 58.7837C109.9 59.1812 113.494 58.953 117.131 59.2156C118.742 59.3319 120.654 60.4398 121.967 60.3819C127.093 60.1559 132.19 59.8711 137.325 60.0656C141.1 60.2086 144.624 60.0252 148.322 60.9248C152.634 61.9737 157.228 61.1413 161.608 61.048C169.007 60.9284 176.522 61.0255 183.915 61.4303C187.536 61.6445 191.129 62.4752 194.795 62.3628C207.541 62.4653 220.102 61.5873 232.894 62.038C231.789 62.3094 229.791 62.2012 229.571 62.4419C229.821 62.5267 230.822 62.8477 230.998 62.9417C225.083 63.0386 219.148 62.8822 213.246 63.1338C213.064 63.3028 212.882 63.4719 212.701 63.6409C211.949 63.2225 212.256 63.2924 211.29 63.5143C211.255 63.435 211.224 63.3897 211.16 63.3299C210.571 62.7742 190.932 62.9716 188.368 62.9301C184.802 62.8725 181.08 62.8577 177.537 62.4475C175.762 62.2421 174.091 61.5857 172.29 61.5142C169.218 61.3922 166.078 61.9241 163.001 62.0333C158.19 62.2041 153.28 62.0084 148.463 61.8675C146.64 61.8141 144.749 61.7874 142.947 61.486C141.421 61.2308 139.888 60.7277 138.339 60.6411C136.042 60.5126 133.617 60.8498 131.316 60.9681C128.79 61.098 126.235 61.0538 123.706 61.0159C117.585 60.9242 111.55 60.056 105.403 60.1424C105.95 59.6212 106.066 59.5067 106.273 58.7837Z"/><path fill="#ECDD72" transform="scale(2.18803 2.18667)" d="M70.5794 36.9528C76.4556 36.6639 84.1082 37.3309 89.4835 36.9138C89.2435 37.6782 89.034 38.5336 88.5426 39.1588C88.5797 40.3788 88.6683 41.9278 88.5837 43.1174L84.0609 43.3735L83.9838 43.5239L84.1496 43.7305C83.0019 44.0509 79.6314 43.8444 78.3822 43.7311C79.6127 43.5962 80.8448 43.4757 82.0781 43.3696C74.4422 42.7363 73.4131 44.7709 68.5457 37.3699C68.9296 37.0071 69.9963 37.0061 70.5794 36.9528Z"/><path fill="#FBF281" transform="scale(2.18803 2.18667)" d="M70.5794 36.9528C76.4556 36.6639 84.1082 37.3309 89.4835 36.9138C89.2435 37.6782 89.034 38.5336 88.5426 39.1588C88.4229 39.5256 88.2844 40.203 88.1895 40.6037L87.9343 40.6053L87.9269 39.764C85.6892 39.4816 80.8046 39.6418 78.3606 39.5254C76.4655 39.4329 74.1046 39.8425 72.252 39.3892C70.3778 38.9305 70.1835 38.5924 70.5794 36.9528Z"/><path fill="#E0CA56" fill-opacity="0.96470588" transform="scale(2.18803 2.18667)" d="M239.504 62.0891C242.048 61.8017 245.51 62.0284 248.144 61.9889C260.453 61.8047 272.413 63.179 284.667 61.3786C287.647 60.9408 293.691 61.1251 296.86 61.0589C300.328 60.977 303.798 60.9816 307.266 61.0727C313.737 61.2896 316.414 61.3852 322.821 60.4206C328.55 60.1818 335.329 59.509 341.03 60.1501C347.376 60.8636 351.718 59.2388 357.925 59.0869L357.446 59.3854L357.558 59.4802C358.73 59.3667 359.916 59.1855 361.06 59.4624L361.348 60.0042C359.569 59.9546 357.603 59.8962 355.866 60.2064C349.66 61.3146 343.401 60.9975 337.129 60.9812C334.775 60.9751 332.196 60.5233 329.817 60.6611C326.344 61.1192 324.071 61.926 320.39 61.9482C315.084 62.0748 309.735 61.9753 304.436 62.0117C302.357 62.026 297.466 61.2544 295.8 61.5448C286.898 63.0965 278.216 63.0448 269.207 62.9806C267.426 62.9679 264.628 62.8765 262.934 63.1643L262.041 63.0434C259.819 62.9397 253.764 62.4279 252.324 64.054L251.819 63.5189C250.957 62.6423 244.808 62.8851 243.627 63.4008C243.511 63.8636 243.504 63.6793 243.747 64.1754L242.639 65.0266L241.77 64.7127L242.461 63.5156L242.25 62.7607C241.52 62.233 240.657 62.358 239.504 62.0891Z"/><path fill="#FBF281" transform="scale(2.18803 2.18667)" d="M396.145 37.0381C397.506 36.9787 402.478 36.7194 402.585 37.4512C403.229 41.861 397.139 43.0209 395.155 43.0181C391.016 43.0122 388.155 42.8447 385.16 43.1271C384.516 43.2647 384.738 43.3037 384.147 43.0455C383.65 42.1133 383.878 39.877 383.907 38.7448C383.78 38.1234 383.745 37.7783 383.706 37.1446C386.204 36.829 393.35 37.021 396.145 37.0381Z"/><path fill="#ECDD72" transform="scale(2.18803 2.18667)" d="M396.145 37.0381C397.506 36.9787 402.478 36.7194 402.585 37.4512C403.229 41.861 397.139 43.0209 395.155 43.0181C391.016 43.0122 388.155 42.8447 385.16 43.1271C384.784 42.9564 384.695 42.6927 384.509 42.3289L384.684 41.8914C388.488 39.0814 400.232 40.599 402.011 38.2633C399.774 37.1908 397.779 37.6338 395.201 37.7556L396.145 37.0381Z"/><path fill="#D8C85D" transform="scale(2.18803 2.18667)" d="M383.907 38.7448C383.78 38.1234 383.745 37.7783 383.706 37.1446C386.204 36.829 393.35 37.021 396.145 37.0381L395.201 37.7556C393.743 37.8322 391.827 37.9694 390.379 38.0785C389.017 38.1811 384.936 37.7022 384.123 37.8917L383.907 38.7448Z"/><defs><linearGradient id="gradient_1" gradientUnits="userSpaceOnUse" x1="225.49947" y1="61.332859" x2="231.50739" y2="68.445419"><stop offset="0" stop-color="#CAB553"/><stop offset="1" stop-color="#E5DE74"/></linearGradient></defs><path fill="url(#gradient_1)" transform="scale(2.18803 2.18667)" d="M232.894 62.038C234.19 61.9899 238.349 61.7961 239.504 62.0891C240.657 62.358 241.52 62.233 242.25 62.7607L242.461 63.5156L241.77 64.7127L240.695 65.2854C240.475 65.8622 240.05 67.3579 239.501 67.6374C239.488 67.6443 239.473 67.6498 239.459 67.656C239.037 68.2704 238.983 68.5566 239.115 69.3138C239.125 69.3763 239.138 69.4386 239.152 69.5005C238.762 69.7079 236.038 70.447 235.75 70.3824L235.371 69.7528C235.712 68.5751 236.028 66.9951 235.5 65.8807L234.521 66.9278C234.319 66.4903 234.244 66.4017 233.834 66.1492L232.71 66.472C232.923 65.6905 233.082 65.2637 232.952 64.4444C232.839 64.3875 232.709 64.3221 232.563 64.2485C229.883 65.9341 226.613 68.9569 223.443 69.3893C222.273 69.5489 220.537 69.9048 219.642 69.2793L219.594 68.8044C219.976 68.1128 220.784 67.8335 221.505 67.4929C221.458 66.1426 220.897 64.7067 221.836 63.7513C223.524 63.3984 223.914 65.1331 224.422 66.4719C225.626 66.6663 229.626 64.292 230.848 63.6002L230.998 62.9417C230.822 62.8477 229.821 62.5267 229.571 62.4419C229.791 62.2012 231.789 62.3094 232.894 62.038Z"/><path fill="#ECDD72" transform="scale(2.18803 2.18667)" d="M235.5 65.8807L235.452 65.8687C234.82 65.7012 234.359 65.5162 234.059 65.0025C235.45 62.6345 239.788 64.4447 241.739 63.5028C241.919 63.4159 242.254 63.4932 242.461 63.5156L241.77 64.7127L240.695 65.2854C240.475 65.8622 240.05 67.3579 239.501 67.6374C239.488 67.6443 239.473 67.6498 239.459 67.656C239.037 68.2704 238.983 68.5566 239.115 69.3138C239.125 69.3763 239.138 69.4386 239.152 69.5005C238.762 69.7079 236.038 70.447 235.75 70.3824L235.371 69.7528C235.712 68.5751 236.028 66.9951 235.5 65.8807Z"/><path fill="#D8C85D" transform="scale(2.18803 2.18667)" d="M211.29 63.5143C212.256 63.2924 211.949 63.2225 212.701 63.6409C213.074 65.5463 215.345 68.9833 217.108 70.0548C219.894 71.7471 222.163 71.7133 225.018 71.3773C228.967 70.9126 231.072 66.6479 232.71 66.472L233.834 66.1492C234.244 66.4017 234.319 66.4903 234.521 66.9278C233.536 69.381 230.521 71.5097 228.751 73.4886C223.826 73.614 219.19 74.29 215.302 70.5936C214.597 69.923 213.9 69.2332 213.275 68.4862C210.657 68.6656 207.87 68.6541 205.251 68.4695C205.28 68.4406 205.31 68.4121 205.341 68.3847C206.214 67.6006 208.602 68.0309 209.744 68.0799C210.54 68.114 211.305 68.1259 211.928 67.5549C211.113 67.1408 209.717 67.5437 208.781 67.4792C207.736 67.4073 206.683 67.1493 205.663 66.9216L207.575 66.6995C208.979 66.4972 210.884 67.2238 211.88 66.2742C212.1 65.4123 211.602 64.3806 211.29 63.5143Z"/><path fill="#FBF281" transform="scale(2.18803 2.18667)" d="M88.8411 43.9639C89.2205 45.1834 90.2281 48.1612 89.5852 49.2011C86.5591 50.2222 74.6592 49.5538 76.7795 43.9996C77.4731 43.6091 77.5361 43.7319 78.3822 43.7311C79.6314 43.8444 83.0019 44.0509 84.1496 43.7305C85.5334 43.6415 87.4291 43.8411 88.8411 43.9639Z"/><path fill="#ECDD72" transform="scale(2.18803 2.18667)" d="M235.643 18.9618C236.327 18.1052 235.819 14.5555 235.146 13.5352C234.718 12.8871 233.088 12.9166 232.244 12.7808L232.079 12.4159C232.857 10.8298 234.691 11.355 235.612 10.7389C236.331 10.2578 235.449 6.0535 236.941 4.97782L237.426 5.14232C238.377 6.40632 238.673 9.1217 238.904 10.7307C240.007 11.445 240.829 10.6744 241.822 11.3899C242.269 13.2439 237.624 13.1499 238.772 17.7139C239.423 17.7194 239.331 17.6136 239.969 17.1044L241.51 17.584C241.145 18.1536 240.551 19.0177 240.253 19.5924C239.832 19.9579 239.769 19.8864 239.7 20.3563C240.206 20.7058 240.697 20.637 241.313 20.6277C239.231 21.109 239.511 21.0435 237.769 19.7417C236.957 19.8075 235.468 20.7473 234.392 21.1376C233.354 20.9936 233.588 21.171 232.959 20.5585C234.735 20.2211 233.643 19.6026 235.643 18.9618Z"/><path fill="#ECDD72" transform="scale(2.18803 2.18667)" d="M387.655 43.6113C389.767 43.5894 393.441 43.0599 395.184 44.3743C395.368 44.7717 395.516 44.9608 395.41 45.4072C395.057 46.8809 392.778 48.2738 391.565 49.0192C389.506 49.7452 384.853 49.2788 382.592 49.263C382.844 47.4391 383.476 45.666 384.017 43.9112C385.228 43.8644 386.447 43.7171 387.655 43.6113Z"/><path fill="#D8C85D" transform="scale(2.18803 2.18667)" d="M262.041 63.0434L262.934 63.1643C262.758 64.072 262.539 65.3801 262.268 66.2233L261.713 65.9839C261.28 66.1863 261.102 66.2837 260.927 66.754C260.76 67.2052 260.746 68.0559 260.865 68.5077C260.854 68.5413 260.843 68.5749 260.83 68.6078C260.243 70.0852 257.903 71.8344 256.445 72.4528C252.72 74.0334 246.663 73.7195 243.422 71.1089C242.199 70.1242 240.976 68.2526 239.507 67.6741C239.491 67.6678 239.475 67.662 239.459 67.656C239.473 67.6498 239.488 67.6443 239.501 67.6374C240.05 67.3579 240.475 65.8622 240.695 65.2854C242.331 67.6284 246.001 70.0618 248.374 71.5515C250.522 71.3239 253.155 71.4181 255.397 71.3532C257.334 69.9213 262.118 65.5366 262.041 63.0434Z"/><path fill="#E0CA56" transform="scale(2.18803 2.18667)" d="M376.865 25.9822C378.981 27.485 380.835 31.2606 381.748 33.6499C384.094 39.7854 383.503 46.9757 379.622 52.412C379.477 52.6122 379.322 52.8051 379.158 52.9901C378.726 53.2123 377.634 53.8066 377.23 53.9405C383.557 45.2241 383.573 36.2647 376.685 27.9132C376.901 27.4498 376.857 26.53 376.865 25.9822Z"/><path fill="#3A2B05" fill-opacity="0.011764706" transform="scale(2.18803 2.18667)" d="M91.8961 29.5317C92.1401 30.2762 92.1378 29.9992 91.8853 30.7543C90.9473 31.2042 91.3233 31.1297 90.2488 30.9909C86.4773 31.1897 65.9292 31.9141 63.3306 31.1114L63.2479 30.1638C67.0051 30.07 89.5841 30.2356 91.8961 29.5317Z"/><path fill="#0D0505" fill-opacity="0.043137256" transform="scale(2.18803 2.18667)" d="M380.877 29.7C387.183 30.0586 393.43 30.0145 399.739 30.0917C402.435 30.1247 405.786 29.9641 408.419 30.2002C407.818 30.6729 407.681 30.7681 406.96 31.0156L407.014 31.3733C405.042 32.0804 385.568 31.1418 381.756 31.2682L381.591 31.2083C381.321 30.7449 381.095 30.1953 380.877 29.7Z"/><path fill="#FBF281" transform="scale(2.18803 2.18667)" d="M94.1916 55.0122C94.1508 55.5255 94.0701 55.675 93.8639 56.1357C91.9388 57.4872 82.8494 53.18 84.8483 50.4973C89.0798 48.6068 91.445 52.4327 93.9069 54.6307L94.1916 55.0122Z"/><path fill="#FBF281" transform="scale(2.18803 2.18667)" d="M382.332 49.9214C383.864 50.3665 386.058 49.4131 387.307 50.4312C387.649 51.2619 387.457 51.7324 387.304 52.5999C386.155 53.6731 385.025 54.609 383.717 55.4887C383.505 55.6031 383.28 55.7056 383.051 55.7826C382.269 56.0459 380.093 56.3465 379.377 55.9633C379.22 55.8793 379.164 55.4953 379.112 55.3167C379.426 53.5159 381.284 51.4089 382.332 49.9214Z"/><path fill="#D8C85D" transform="scale(2.18803 2.18667)" d="M239.152 69.5005C240.273 70.2527 242.09 71.2162 242.376 72.6369C242.407 72.7904 242.223 73.0802 242.152 73.2309C240.493 73.9896 234.128 73.9844 232.448 73.3545C231.898 73.1484 231.816 73.0252 231.542 72.541C231.676 71.8767 232.126 71.4285 232.678 71.0684C233.52 70.5182 234.579 70.3647 235.371 69.7528L235.75 70.3824C236.038 70.447 238.762 69.7079 239.152 69.5005Z"/><path fill="#D8C85D" transform="scale(2.18803 2.18667)" d="M377.23 53.9405C377.634 53.8066 378.726 53.2123 379.158 52.9901C375.112 60.0095 368.715 60.5785 361.348 60.0042L361.06 59.4624C359.916 59.1855 358.73 59.3667 357.558 59.4802L357.446 59.3854L357.925 59.0869C359.927 59.0415 362.142 58.5964 363.929 58.4795C370.912 58.0225 371.675 58.1473 377.23 53.9405Z"/><path fill="#D8C85D" transform="scale(2.18803 2.18667)" d="M251.819 63.5189L252.324 64.054C253.747 66.4788 251.847 65.9814 252.492 67.3597C253.353 67.8011 254.74 68.3736 255.184 69.1727C255.121 69.3682 255.12 69.5486 254.926 69.6432C254.122 70.0347 249.864 69.3905 248.877 69.0214C246.763 68.2306 244.443 65.4295 242.639 65.0266L243.747 64.1754C245.354 64.4869 247.345 66.139 248.679 67.1444C249.744 65.9517 250.791 64.743 251.819 63.5189Z"/><path fill="#D8C85D" transform="scale(2.18803 2.18667)" d="M254.283 10.2479C256.872 11.399 259.376 12.6372 261.382 14.7188C262.889 14.8797 264.238 15.0352 265.762 15.0528C265.093 15.781 265.378 15.6682 264.535 15.8003L263.411 15.3107L262.976 15.5394L263.007 16.0424C264.183 16.9959 264.283 15.8856 265.491 16.9623C264.316 16.9848 263.99 16.7997 263.109 17.353C262.752 18.2533 263.112 19.2644 262.923 20.382L262.355 20.374C260.774 17.5461 256.93 11.8829 253.388 12.0149C253.526 11.1038 253.691 10.9222 254.283 10.2479Z"/><path fill="#D8C85D" transform="scale(2.18803 2.18667)" d="M239.969 17.1044C244.221 11.9105 247.396 9.74467 254.283 10.2479C253.691 10.9222 253.526 11.1038 253.388 12.0149C247.468 11.9585 245.532 13.6219 241.51 17.584L239.969 17.1044Z"/><path fill="#ECDD72" transform="scale(2.18803 2.18667)" d="M222.163 10.2142C223.473 10.1712 227.63 10.6447 228.324 11.7744C230.749 13.2967 233.649 15.1212 234.944 17.7961C234.049 17.1201 233.09 16.2119 232.037 16.8675C231.168 16.7316 229.879 15.1061 229.248 14.3964C227.454 13.2527 225.879 12.0857 223.729 11.899L223.528 11.5024C223.865 11.4577 223.918 11.401 224.179 11.1751C223.641 10.5359 223.059 10.5114 222.163 10.2142Z"/><path fill="#ECDD72" transform="scale(2.18803 2.18667)" d="M225.468 16.7967C223.56 16.944 225.247 18.2035 223.675 19.8177C222.77 20.0737 222.57 20.0706 221.645 19.8933C220.432 18.5705 222.515 17.4944 222.208 16.1671C221.109 15.8032 220.461 15.3282 219.716 14.4837L219.769 14.1505C221.456 13.5655 224.498 14.762 226.146 15.3578C225.922 16.197 226.045 16.2439 225.468 16.7967Z"/><path fill="#D8C85D" transform="scale(2.18803 2.18667)" d="M93.4308 50.5792C94.2309 51.9775 94.9416 53.392 96.3342 54.2786C97.9176 55.4832 99.399 56.608 101.046 57.7256C101.131 58.1753 101.335 59.0516 101.274 59.4645C99.414 58.9116 98.4036 58.1487 96.9373 56.936C94.6294 56.1645 95.3321 55.4231 94.1916 55.0122L93.9069 54.6307C93.9585 53.6766 93.1883 52.8106 92.6568 52.0829C92.7279 51.721 93.2222 50.9385 93.4308 50.5792Z"/><path fill="#FBF281" transform="scale(2.18803 2.18667)" d="M232.037 16.8675C233.09 16.2119 234.049 17.1201 234.944 17.7961C235.15 18.174 235.375 18.6329 235.643 18.9618C233.643 19.6026 234.735 20.2211 232.959 20.5585C231.606 20.7403 231.449 20.9453 230.497 20.2949C230.569 19.4796 231.074 19.1753 231.607 18.729C232.185 18.19 232.034 17.5937 232.037 16.8675Z"/><path fill="#D8C85D" transform="scale(2.18803 2.18667)" d="M226.146 15.3578C227.521 15.7429 230.709 17.7127 231.607 18.729C231.074 19.1753 230.569 19.4796 230.497 20.2949L230.385 20.3006C229.77 19.3383 226.542 17.4571 225.468 16.7967C226.045 16.2439 225.922 16.197 226.146 15.3578Z"/><path fill="#E0CA56" transform="scale(2.18803 2.18667)" d="M91.3661 45.9064C92.084 47.4507 92.7724 49.0086 93.4308 50.5792C93.2222 50.9385 92.7279 51.721 92.6568 52.0829C91.431 50.8776 90.224 48.5909 89.9969 46.8852C90.9665 46.5431 90.6449 46.731 91.3661 45.9064Z"/><path fill="#D8C85D" transform="scale(2.18803 2.18667)" d="M372.404 23.5243C374.116 23.5584 375.712 24.8356 376.865 25.9822C376.857 26.53 376.901 27.4498 376.685 27.9132C372.895 23.935 371.508 24.6578 366.391 24.2898C368.363 24.0115 371.132 24.822 372.404 23.5243Z"/><path fill="#E0CA56" transform="scale(2.18803 2.18667)" d="M101.046 57.7256C102.902 57.91 104.493 58.1917 106.273 58.7837C106.066 59.5067 105.95 59.6212 105.403 60.1424C103.981 59.9872 102.634 59.934 101.274 59.4645C101.335 59.0516 101.131 58.1753 101.046 57.7256Z"/></svg>